{
    "programs": [

    ],
    "streams": [
        {
            "index": 0,
            "codec_name": "h264",
            "codec_long_name": "H.264 / AVC / MPEG-4 AVC / MPEG-4 part 10",
            "profile": "High",
            "codec_type": "video",
            "codec_time_base": "1/48",
            "codec_tag_string": "[0][0][0][0]",
            "codec_tag": "0x0000",
            "width": 1280,
            "height": 720,
            "has_b_frames": 1,
            "sample_aspect_ratio": "1:1",
            "display_aspect_ratio": "16:9",
            "pix_fmt": "yuv420p",
            "level": 40,
            "chroma_location": "left",
            "refs": 4,
            "is_avc": "1",
            "nal_length_size": "4",
            "r_frame_rate": "24/1",
            "avg_frame_rate": "24/1",
            "time_base": "1/1000",
            "start_pts": 0,
            "start_time": "0.000000",
            "bits_per_raw_sample": "8",
            "disposition": {
                "default": 1,
                "dub": 0,
                "original": 0,
                "comment": 0,
                "lyrics": 0,
                "karaoke": 0,
                "forced": 0,
                "hearing_impaired": 0,
                "visual_impaired": 0,
                "clean_effects": 0,
                "attached_pic": 0
            },
            "tags": {
                "language": "eng",
                "title": "Main title"
            }
        },
        {
            "index": 1,
            "codec_name": "aac",
            "codec_long_name": "AAC (Advanced Audio Coding)",
            "profile": "LC",
            "codec_type": "audio",
            "codec_time_base": "1/48000",
            "codec_tag_string": "[0][0][0][0]",
            "codec_tag": "0x0000",
            "sample_fmt": "fltp",
            "sample_rate": "48000",
            "channels": 6,
            "channel_layout": "5.1",
            "bits_per_sample": 0,
            "r_frame_rate": "0/0",
            "avg_frame_rate": "0/0",
            "time_base": "1/1000",
            "start_pts": 0,
            "start_time": "0.000000",
            "disposition": {
                "default": 1,
                "dub": 0,
                "original": 0,
                "comment": 0,
                "lyrics": 0,
                "karaoke": 0,
                "forced": 0,
                "hearing_impaired": 0,
                "visual_impaired": 0,
                "clean_effects": 0,
                "attached_pic": 0
            },
            "tags": {
                "language": "eng",
                "title": "English 5.1 Surround"
            }
        },
        {
            "index": 2,
            "codec_name": "srt",
            "codec_long_name": "SubRip subtitle",
            "codec_type": "subtitle",
            "codec_time_base": "1/1000",
            "codec_tag_string": "[0][0][0][0]",
            "codec_tag": "0x0000",
            "r_frame_rate": "0/0",
            "avg_frame_rate": "0/0",
            "time_base": "1/1000",
            "start_pts": 0,
            "start_time": "0.000000",
            "duration_ts": 658154,
            "duration": "658.154000",
            "disposition": {
                "default": 0,
                "dub": 0,
                "original": 0,
                "comment": 0,
                "lyrics": 0,
                "karaoke": 0,
                "forced": 0,
                "hearing_impaired": 0,
                "visual_impaired": 0,
                "clean_effects": 0,
                "attached_pic": 0
            },
            "tags": {
                "language": "eng",
                "title": "English"
            }
        },
        {
            "index": 3,
            "codec_name": "srt",
            "codec_long_name": "SubRip subtitle",
            "codec_type": "subtitle",
            "codec_time_base": "1/1000",
            "codec_tag_string": "[0][0][0][0]",
            "codec_tag": "0x0000",
            "r_frame_rate": "0/0",
            "avg_frame_rate": "0/0",
            "time_base": "1/1000",
            "start_pts": 0,
            "start_time": "0.000000",
            "duration_ts": 658154,
            "duration": "658.154000",
            "disposition": {
                "default": 0,
                "dub": 0,
                "original": 0,
                "comment": 0,
                "lyrics": 0,
                "karaoke": 0,
                "forced": 0,
                "hearing_impaired": 0,
                "visual_impaired": 0,
                "clean_effects": 0,
                "attached_pic": 0
            },
            "tags": {
                "language": "fre",
                "title": "French"
            }
        },
        {
            "index": 4,
            "codec_name": "srt",
            "codec_long_name": "SubRip subtitle",
            "codec_type": "subtitle",
            "codec_time_base": "1/1000",
            "codec_tag_string": "[0][0][0][0]",
            "codec_tag": "0x0000",
            "r_frame_rate": "0/0",
            "avg_frame_rate": "0/0",
            "time_base": "1/1000",
            "start_pts": 0,
            "start_time": "0.000000",
            "duration_ts": 658154,
            "duration": "658.154000",
            "disposition": {
                "default": 0,
                "dub": 0,
                "original": 0,
                "comment": 0,
                "lyrics": 0,
                "karaoke": 0,
                "forced": 0,
                "hearing_impaired": 0,
                "visual_impaired": 0,
                "clean_effects": 0,
                "attached_pic": 0
            },
            "tags": {
                "language": "ger",
                "title": "German"
            }
        },
        {
            "index": 5,
            "codec_name": "srt",
            "codec_long_name": "SubRip subtitle",
            "codec_type": "subtitle",
            "codec_time_base": "1/1000",
            "codec_tag_string": "[0][0][0][0]",
            "codec_tag": "0x0000",
            "r_frame_rate": "0/0",
            "avg_frame_rate": "0/0",
            "time_base": "1/1000",
            "start_pts": 0,
            "start_time": "0.000000",
            "duration_ts": 658154,
            "duration": "658.154000",
            "disposition": {
                "default": 0,
                "dub": 0,
                "original": 0,
                "comment": 0,
                "lyrics": 0,
                "karaoke": 0,
                "forced": 0,
                "hearing_impaired": 0,
                "visual_impaired": 0,
                "clean_effects": 0,
                "attached_pic": 0
            },
            "tags": {
                "language": "ita",
                "title": "Italian"
            }
        },
        {
            "index": 6,
            "codec_name": "srt",
            "codec_long_name": "SubRip subtitle",
            "codec_type": "subtitle",
            "codec_time_base": "1/1000",
            "codec_tag_string": "[0][0][0][0]",
            "codec_tag": "0x0000",
            "r_frame_rate": "0/0",
            "avg_frame_rate": "0/0",
            "time_base": "1/1000",
            "start_pts": 0,
            "start_time": "0.000000",
            "duration_ts": 658154,
            "duration": "658.154000",
            "disposition": {
                "default": 0,
                "dub": 0,
                "original": 0,
                "comment": 0,
                "lyrics": 0,
                "karaoke": 0,
                "forced": 0,
                "hearing_impaired": 0,
                "visual_impaired": 0,
                "clean_effects": 0,
                "attached_pic": 0
            },
            "tags": {
                "language": "pol",
                "title": "Polish"
            }
        },
        {
            "index": 7,
            "codec_name": "srt",
            "codec_long_name": "SubRip subtitle",
            "codec_type": "subtitle",
            "codec_time_base": "1/1000",
            "codec_tag_string": "[0][0][0][0]",
            "codec_tag": "0x0000",
            "r_frame_rate": "0/0",
            "avg_frame_rate": "0/0",
            "time_base": "1/1000",
            "start_pts": 0,
            "start_time": "0.000000",
            "duration_ts": 658154,
            "duration": "658.154000",
            "disposition": {
                "default": 0,
                "dub": 0,
                "original": 0,
                "comment": 0,
                "lyrics": 0,
                "karaoke": 0,
                "forced": 0,
                "hearing_impaired": 0,
                "visual_impaired": 0,
                "clean_effects": 0,
                "attached_pic": 0
            },
            "tags": {
                "language": "rus",
                "title": "Russian"
            }
        },
        {
            "index": 8,
            "codec_name": "srt",
            "codec_long_name": "SubRip subtitle",
            "codec_type": "subtitle",
            "codec_time_base": "1/1000",
            "codec_tag_string": "[0][0][0][0]",
            "codec_tag": "0x0000",
            "r_frame_rate": "0/0",
            "avg_frame_rate": "0/0",
            "time_base": "1/1000",
            "start_pts": 0,
            "start_time": "0.000000",
            "duration_ts": 658154,
            "duration": "658.154000",
            "disposition": {
                "default": 0,
                "dub": 0,
                "original": 0,
                "comment": 0,
                "lyrics": 0,
                "karaoke": 0,
                "forced": 0,
                "hearing_impaired": 0,
                "visual_impaired": 0,
                "clean_effects": 0,
                "attached_pic": 0
            },
            "tags": {
                "language": "spa",
                "title": "Spanish"
            }
        }
    ],
    "format": {
        "filename": "ElephantsDream_720p_DivXPlus.mkv",
        "nb_streams": 9,
        "nb_programs": 0,
        "format_name": "matroska,webm",
        "format_long_name": "Matroska / WebM",
        "start_time": "0.000000",
        "duration": "658.154000",
        "size": "203223428",
        "bit_rate": "2470223",
        "probe_score": 100,
        "tags": {
            "encoder": "libebml v0.7.7 + libmatroska v0.8.1",
            "creation_time": "2009-10-06 22:31:25",
            "TITLE": "Elephants Dream",
            "TITLE/URL": "http://www.elephantsdream.org",
            "ARTIST": "Orange Open Movie Team",
            "PRODUCER": "Ton Roosendaal",
            "COPYRIGHT": "Copyright 2006, Blender Foundation / Netherlands Media Art Institute / www.elephantsdream.org",
            "TERMS_OF_USE": "Creative Commons Attribution 2.5 Generic License",
            "TERMS_OF_USE/URL": "http://creativecommons.org/licenses/by/2.5/",
            "COMMENT": "Encoded in DivX 7"
        }
    }
}
